<svg xmlns="http://www.w3.org/2000/svg" viewBox="0 0 410.92 196.59"><title>hta-logo</title><g id="Layer_2" data-name="Layer 2"><g id="Layer_1-2" data-name="Layer 1"><path id="Layer_2-2" data-name="Layer 2" d="M116.38,47.13c.74-3.22,4.81-5,4.65-8.5-.83-2.08-3-2.75-5.24-2.31-1.77,2-2.82,5-3.88,7.68A4.56,4.56,0,0,0,116.38,47.13ZM109.65,0c-8,20.87-16.29,41.65-23.33,62.9-1.13,9.73-12.94,4.73-19.09,7.94l-.82-.78C69.15,55,79.26,42.75,85.32,28.93,86.49,21.3,92.57,13.58,88.93,6c-1.53-1.37-4.62-.92-5.18,1.3C75.53,24.49,73.9,45.75,55.38,57.49c-2.72,4.95-9.75,4-10.25,9.79a6.77,6.77,0,0,0,4.45,2.33c4.9-.29,8.18-8,12.68-7.83-1.23,4-2,8.34-5,11.7C32.54,80.32,23.8,78.8,1.07,90.31c0,0-2.4,8.28,0,8,20.26-9.77,30.59-11,52.32-17.19l.81.78c-5,16.82-11.74,33-16.35,50,1,2,3.37,3.45,5.25,2.71L61,82.23c3.38-7.07,13-4.84,19.5-7.15l.82.78c-7.78,24.87-16,49.65-22.73,74.91C58.44,154,55.33,159,60,161.16a4.74,4.74,0,0,0,4-.07l1-10.84c14-50.11,32-98.49,50-147.07C114.38.88,112-.18,109.65,0ZM128.8,115.42c-2.59.75-4.51,5.39-7.14,3.73,1.09-5.93,3.6-11.38,5.71-16.92,5.39-12.51,8.56-26.19,15-37.92a6.33,6.33,0,0,0-6.48-3.89c-2.35-3.06-3.44-7.65-7-9.09C115.71,65.58,111,83.08,98.45,97.52c-.8.22-1.78,1.54-2.41,0C101,85,105.92,72.36,111.41,60c.56-2.22,2.31-5.35-.12-7.21-1.21-.38-3-1.55-4,.07l-20,49.62c0,4.4-3.51,11.27,1.84,14,5.71-.1,7.57-8.34,11.41-12.21,3.15-3.06,4.35,2.43,6.07,3.9,5.77,3.3,9.24-4.27,13.53-5.45-2.34,9.76-5.78,19-8.72,28.6C98.58,145.19,88.66,162.19,85.88,181c.09,4.81-2,11.45,2.67,14.78,2.22,1.26,5.82,1.2,7.18-1.73,9.6-17.89,12-38.67,19.83-57.23,5-5.39,10.3-12.3,16.94-16.32,4.26,3.23,6.56-2.41,9.53-4.57,1.67-1.93.13-4.11-1.3-5.58C135.9,108.89,132.06,112.86,128.8,115.42ZM91.62,188.57c-1.66-3.57-.15-7.15.6-11.63,1.73-10.26,3.18-18.48,11.19-24.22l.09,4.8C99.07,167.71,97.26,178.86,91.62,188.57ZM112.1,99.29h-.8a96.12,96.12,0,0,1,17.79-36.36C132.7,77.08,119.42,88.85,112.1,99.29ZM393.17,78c-11.39-1.58-16.1-2.15-18.65-2.36-7.17-.3-9.86,0-27.31.29-4.17-3.14-2.47-9.07-1.84-13.59a8.67,8.67,0,0,0-5.28-3.91,13.25,13.25,0,0,0-2.74,3.65c-5,3.09-.87-4-3.7-5.15-1.94-2.17-3.74-2.13-5.6.1-8,14-19.2,30.18-34.61,36.66-2.16-3.07.39-6.12.64-9.23,4.72-10.7,20.48-8.46,24.47-20.86,2.3-6.05,5.45-14.72.84-20.45-1.73-2.17-3.94-1.93-6-.69-8.84,9.87-17.36,20.63-22.26,32.43l-3.19.86c-2.83-6.86-.33-13.11.45-20a4.6,4.6,0,0,0-5.77-3,3.65,3.65,0,0,0-.71.29c-3.08,12.87-8.76,25.49-18.21,35.17-.71-.59-.33-1.6-.44-2.4L276,56.36c-.83-1.79-3.09-5-5.66-3.11a149.19,149.19,0,0,1-19.17,28.38c-1.31-.48-.64-1.79-.85-2.79l13.95-27.08.73-3.62c-1-1.69-2.86-3.56-5.25-2.71-4.11,5.68-10.84,10.4-16.15,15.9h-1.2c-.77-4,4.09-6.88,4.62-10.89,1.25-2.73,1.18-6.94-1.76-8.79a20.22,20.22,0,0,0-4.39.48c-4.73,4.59-10.46,9.5-13.76,15.06A2.87,2.87,0,0,1,224.68,56c-1.53-1.57-4.11-.63-5.18,1.29-3.27,13.38-13.37,25.87-25.86,32.9l-.82-.79c4.63-16.1,11.77-31.14,17.61-46.77l3.57-4c19.65-3.94,42.26-5.64,61.58-5.88,12,1.3,26.33-.56,37.72,3.75,1.68-1.13,1.65-3,1.52-4.83-2.16-3-6.45-2.29-9.68-3.44-29.28-2.59-61.32-2-89.27,3.16l2.25-8.85c1.24-3.43,5.43-4.6,4.65-8.89a6,6,0,0,0-4.46-3.13c-4.79,6.69-7.85,14.86-10.82,22.62l-10.76,3,.45,2.8c.75,2.89,4,2.63,6.46,3.09-3.15,8.77-5.39,18-12,25.44-7.7,6.75-13.77,14.87-21.25,22-1.12-.89-2-2-1.67-3.58l17.35-38.76.31-5.21c-.83-1.79-3-3.15-4.84-1.92a101,101,0,0,0-23.2,24.84l-.83-1.59c6.43-16.13,13.56-32.08,17.57-49.17-.14-2.3-4-5.54-5.64-1.91A714.48,714.48,0,0,1,143,81.91c-1.1,5.83-8.38,13.07-2.09,18.06,5.73,1.41,5.8-6,8.66-9,7.4-12.14,15-25.1,24.62-35.28l.4.39c-4.3,11.5-11.43,21.83-13.42,34.29-.24,3.41,2.3,5.27,4.93,6.72,3.72,1.24,7.3-.33,10-3,4.15-3,6.25-9.32,10.63-10.6,0,3.81-1.46,8-.61,11.23a13.5,13.5,0,0,0,3.66,2.74c5.94,1.7,10.17-2.68,14.31-6.26,7.43-4.74.21,6.31,6.54,7.5,2.64,2,5.42,1,8.42.65,9.4-6.57,11.72-17.23,17.57-25.94,4.2-.77,7.23-5.13,11.13-5.4-1.66,8.64-7.54,15.55-7.18,25,1.35,2.58,4.67,3.32,7.25,2.28,3.28-1.46,5.8-6.51,8.69-7,.26,3.3,1,6.4,3.36,8.76a6.18,6.18,0,0,0,6.41-.11,118,118,0,0,0,14.06-20.68c1.68-1.13,3.13,1.65,4.05,2.73,8,1.67,0,9.12,2.65,14a12.93,12.93,0,0,0,6.49,5.09c4.43.93,8.29-1.64,12-3.41,5.17-2.29,7.65-9.15,13-9.84,0,5-6.55,9.43-2.56,14.06,1.42.78,3.44,1.85,4.81.32l11.29-18.63c2.47-2.44,2.69-6.85,6.68-7.72,2.27,3.86,5.67,9.31,10.59,9.83,24.8-2.76,36,1.33,61.23,5l.35-2.81C408,78.45,397,79.23,393.17,78ZM314.31,50.48c1.49,4.88-1.93,9.75-4.16,14.09-2,2.34-4.75,3-7.13,4.54V65.9Zm-99,42.19a138.56,138.56,0,0,1,7.58-24.57c3.42-5,2.36,3.06,4.88,3.92C226.5,79.55,221.12,87.16,215.31,92.67Z"/></g></g></svg>